<?xml version="1.0" encoding="utf-8"?>
<!-- Generator: Adobe Illustrator 19.1.0, SVG Export Plug-In . SVG Version: 6.00 Build 0)  -->
<svg version="1.1" id="Layer_1" xmlns="http://www.w3.org/2000/svg" xmlns:xlink="http://www.w3.org/1999/xlink" x="0px" y="0px"
	 viewBox="-192 386.9 211 69" style="enable-background:new -192 386.9 211 69;" xml:space="preserve">
<g>
	<path d="M-95.2,418.4c0,4-2.7,6.8-7.1,6.8h-5.1v6.9h-3.3v-20.4h8.3C-97.9,411.7-95.2,414.4-95.2,418.4z M-98.5,418.4
		c0-2.1-1.2-3.6-3.9-3.6h-4.9v7.2h4.9C-99.8,422-98.5,420.5-98.5,418.4z"/>
	<path d="M-83.1,415.8v3.3c-0.3,0-0.6-0.1-1-0.1c-3,0-5.3,1.7-5.3,5.6v7.3h-3.3v-16h3.3v3.2c1-2.2,2.8-3.5,5.3-3.5
		C-83.7,415.7-83.4,415.7-83.1,415.8z"/>
	<path d="M-65.4,424c0,4.8-3.6,8.3-8.3,8.3c-4.6,0-8.3-3.6-8.3-8.3c0-4.8,3.7-8.3,8.3-8.3S-65.4,419.2-65.4,424z M-78.7,424
		c0,3.1,2.2,5.2,5,5.2s5-2.1,5-5.2c0-3.1-2.2-5.2-5-5.2C-76.4,418.8-78.7,421-78.7,424z"/>
	<path d="M-59,410.9c0,1.2-0.9,2.1-2.1,2.1c-1.2,0-2.1-0.9-2.1-2.1c0-1.2,0.9-2,2.1-2S-59,409.7-59,410.9z M-62.8,416.1h3.3v23.2
		h-3.3V416.1z"/>
	<path d="M-40.5,424.9h-13c0.3,2.9,2.3,4.6,5,4.6c1.9,0,3.5-0.8,4.3-2.4h3.4c-1.2,3.6-4.3,5.3-7.7,5.3c-4.8,0-8.3-3.5-8.3-8.3
		s3.4-8.4,8.2-8.4C-43.5,415.7-40.2,419.7-40.5,424.9z M-53.3,422.3h9.3c-0.5-2.2-2.1-3.7-4.6-3.7S-52.8,420.1-53.3,422.3z"/>
	<path d="M-27,432l-7.5-7.4v7.4h-3.3v-22.3h3.3V423l6.9-6.9h4.2l-7.8,7.6l8.4,8.4H-27V432z"/>
	<path d="M-21.8,424c0-4.8,3.5-8.3,8.3-8.3c3.8,0,7.1,2.3,7.8,6.2h-3.4c-0.6-2-2.4-3.1-4.4-3.1c-3,0-5,2.2-5,5.3s2.1,5.3,5,5.3
		c2.1,0,3.9-1.2,4.5-3.1h3.4c-0.8,3.9-4.1,6.2-7.9,6.2C-18.3,432.4-21.8,428.8-21.8,424z"/>
	<path d="M0.5,410.9c0,1.2-0.9,2.1-2.1,2.1c-1.2,0-2.1-0.9-2.1-2.1c0-1.2,0.9-2,2.1-2S0.5,409.7,0.5,410.9z M-3.3,416.1H0v23.2h-3.3
		V416.1z"/>
	<path d="M18.9,424.9h-13c0.3,2.9,2.3,4.6,5,4.6c1.9,0,3.5-0.8,4.3-2.4h3.4c-1.2,3.6-4.3,5.3-7.7,5.3c-4.8,0-8.3-3.5-8.3-8.3
		s3.4-8.4,8.2-8.4C16,415.7,19.3,419.7,18.9,424.9z M6.1,422.3h9.3c-0.5-2.2-2.1-3.7-4.6-3.7C8.4,418.6,6.7,420.1,6.1,422.3z"/>
</g>
</svg>
