<?xml version="1.0" encoding="utf-8"?>
<!-- Generator: Adobe Illustrator 19.1.0, SVG Export Plug-In . SVG Version: 6.00 Build 0)  -->
<svg version="1.1" id="Layer_1" xmlns="http://www.w3.org/2000/svg" xmlns:xlink="http://www.w3.org/1999/xlink" x="0px" y="0px"
	 viewBox="-192 386.9 211 69" style="enable-background:new -192 386.9 211 69;" xml:space="preserve">
<g>
	<path d="M-162.3,386.9H-192v69h31.3v-17.8c16-0.1,26.3-10.2,26.3-25.8V411L-162.3,386.9z M-160.7,395.1l16.8,14.5h-16.8V395.1z
		 M-139.7,415.6c-0.2,1.9-0.7,3.7-1.3,5.4c-0.1,0.3-0.3,0.6-0.4,1c-0.6,1.3-1.3,2.4-2.1,3.5c-0.3,0.4-0.6,0.7-0.9,1.1
		c-1.6,1.8-3.6,3.3-6,4.3l0,0c-1.2,0.5-2.4,1-3.7,1.3l0,0c-0.4,0.1-0.8,0.2-1.2,0.3c-0.1,0-0.3,0.1-0.4,0.1c-0.5,0.1-1,0.2-1.5,0.2
		l0,0c-1.2,0.1-2.4,0.2-3.6,0.2h-1.2h-3.6h-0.1v4.8v3.6v5v3.6v0.7h-4.3h-3.6h-5h-3.8h-4.4v-4.4v-3.6v-5v-3.6v-5v-3.6v-5v-3.6v-5
		v-3.6v-5v-3.6v-5v-2.6h1.2h5h3.6h5h3.6h2.5v2.5v3.6v5v3.6v5v2.9h2.9h5h3.6h5h3.6h5h1C-139.7,415-139.7,415.3-139.7,415.6z"/>
</g>
</svg>
