<?xml version="1.0" encoding="utf-8"?>
<!-- Generator: Adobe Illustrator 20.0.0, SVG Export Plug-In . SVG Version: 6.00 Build 0)  -->
<svg version="1.1" id="Layer_1" xmlns="http://www.w3.org/2000/svg" xmlns:xlink="http://www.w3.org/1999/xlink" x="0px" y="0px"
	 viewBox="0 0 211 69" style="enable-background:new 0 0 211 69;" xml:space="preserve">
<g>
	<g>
		<path d="M96.8,31.5c0,4-2.7,6.8-7.1,6.8h-5.1v6.9h-3.3V24.8h8.3C94.1,24.8,96.8,27.5,96.8,31.5z M93.5,31.5c0-2.1-1.2-3.6-3.9-3.6
			h-4.9v7.2h4.9C92.2,35.1,93.5,33.6,93.5,31.5z"/>
		<path d="M108.9,28.9v3.3c-0.3,0-0.6-0.1-1-0.1c-3,0-5.3,1.7-5.3,5.6v7.3h-3.3v-16h3.3v3.2c1-2.2,2.8-3.5,5.3-3.5
			C108.3,28.8,108.6,28.8,108.9,28.9z"/>
		<path d="M126.6,37.1c0,4.8-3.6,8.3-8.3,8.3c-4.6,0-8.3-3.6-8.3-8.3c0-4.8,3.7-8.3,8.3-8.3C122.9,28.8,126.6,32.3,126.6,37.1z
			 M113.3,37.1c0,3.1,2.2,5.2,5,5.2s5-2.1,5-5.2c0-3.1-2.2-5.2-5-5.2C115.6,31.9,113.3,34.1,113.3,37.1z"/>
		<path d="M133,24c0,1.2-0.9,2.1-2.1,2.1c-1.2,0-2.1-0.9-2.1-2.1c0-1.2,0.9-2,2.1-2C132.1,22,133,22.8,133,24z M129.2,29.2h3.3v23.2
			h-3.3V29.2z"/>
		<path d="M151.5,38h-13c0.3,2.9,2.3,4.6,5,4.6c1.9,0,3.5-0.8,4.3-2.4h3.4c-1.2,3.6-4.3,5.3-7.7,5.3c-4.8,0-8.3-3.5-8.3-8.3
			c0-4.8,3.4-8.4,8.2-8.4C148.5,28.8,151.8,32.8,151.5,38z M138.7,35.4h9.3c-0.5-2.2-2.1-3.7-4.6-3.7
			C140.9,31.7,139.2,33.2,138.7,35.4z"/>
		<path d="M165,45.1l-7.5-7.4v7.4h-3.3V22.8h3.3v13.3l6.9-6.9h4.2l-7.8,7.6l8.4,8.4H165z"/>
		<path d="M170.2,37.1c0-4.8,3.5-8.3,8.3-8.3c3.8,0,7.1,2.3,7.8,6.2h-3.4c-0.6-2-2.4-3.1-4.4-3.1c-3,0-5,2.2-5,5.3
			c0,3.1,2.1,5.3,5,5.3c2.1,0,3.9-1.2,4.5-3.1h3.4c-0.8,3.9-4.1,6.2-7.9,6.2C173.7,45.5,170.2,41.9,170.2,37.1z"/>
		<path d="M192.5,24c0,1.2-0.9,2.1-2.1,2.1c-1.2,0-2.1-0.9-2.1-2.1c0-1.2,0.9-2,2.1-2C191.6,22,192.5,22.8,192.5,24z M188.7,29.2
			h3.3v23.2h-3.3V29.2z"/>
		<path d="M210.9,38h-13c0.3,2.9,2.3,4.6,5,4.6c1.9,0,3.5-0.8,4.3-2.4h3.4c-1.2,3.6-4.3,5.3-7.7,5.3c-4.8,0-8.3-3.5-8.3-8.3
			c0-4.8,3.4-8.4,8.2-8.4C208,28.8,211.3,32.8,210.9,38z M198.1,35.4h9.3c-0.5-2.2-2.1-3.7-4.6-3.7
			C200.4,31.7,198.7,33.2,198.1,35.4z"/>
	</g>
	<g>
		<path d="M29.7,0H0v69h31.3V51.2c16-0.1,26.3-10.2,26.3-25.8v-1.3L29.7,0z M31.3,8.2l16.8,14.5H31.3V8.2z M52.3,28.7
			c-0.2,1.9-0.7,3.7-1.3,5.4c-0.1,0.3-0.3,0.6-0.4,1c-0.6,1.3-1.3,2.4-2.1,3.5c-0.3,0.4-0.6,0.7-0.9,1.1c-1.6,1.8-3.6,3.3-6,4.3
			c0,0,0,0,0,0c-1.2,0.5-2.4,1-3.7,1.3l0,0c-0.4,0.1-0.8,0.2-1.2,0.3c-0.1,0-0.3,0.1-0.4,0.1c-0.5,0.1-1,0.2-1.5,0.2l0,0
			c-1.2,0.1-2.4,0.2-3.6,0.2H30h-3.6h-0.1v4.8v3.6v5v3.6v0.7h-4.3h-3.6h-5H9.6H5.2v-4.4v-3.6v-5v-3.6v-5v-3.6v-5v-3.6v-5v-3.6v-5
			v-3.6v-5V5.2h1.2h5H15h5h3.6h2.5v2.5v3.6v5v3.6v5v2.9h2.9h5h3.6h5h3.6h5h1C52.3,28.1,52.3,28.4,52.3,28.7z"/>
	</g>
</g>
</svg>
